*******************************************************************************
                         South of Heaven (2008) DVDRip
*******************************************************************************

-------------------------------------------------------------------------------
                              General Information
-------------------------------------------------------------------------------
Type.................: Movie



Video Format.........: AVI
Video Bitrate........: 1787
Resolution...........: 20 x 404
Color................: 8 bit
FPS..................: 23.976
Source...............: DVD 16x9
Original Format......: NTSC
Genre................: Comedy / Crime
IMDb Rating..........: 6.4
Movie Information....: http://www.imdb.com/title/tt0448128/

-------------------------------------------------------------------------------
                               Post Information
-------------------------------------------------------------------------------
Posted by............: RadioResearch
Posted on............: 3/29/2013

-------------------------------------------------------------------------------
                                 Release Notes
-------------------------------------------------------------------------------
SEEDBOX SUPPORTED!!

When Roy Coop finished his stint in the Navy, he only had two things on his 
mind: seeing his brother Dale, and writing the great American novel. What he 
gets, however, is the homecoming from Hell! A pair of violent vaudevillians 
(NAPOLEON DYNAMITE's Jon Gries, and Thomas Jay Ryan) mistake Roy for his 
brother, looking to collect on a debt he didn't know he owed. Eight fingers 
later, Roy is burnt to a crisp, forged by fire into a new man. Roy is dead. 
Nobody is born. Now it's Nobody's turn to have his wicked revenge, and to save 
his brother before it's too late. Wrapped in bandages and ready for blood, 
Nobody is determined to kill those that get in his way, even the murdering 
masochist named Mad Dog Mantee (Shea Whigham, MACHETE and HBO's BOARDWALK 
EMPIRE). Dodging bullets and dodging dames, Nobody meets the nasty ne'er-do-
wells Lily (Diora Baird, THE TEXAS CHAINSAW MASSACRE: THE BEGINNING) and 
Veronica (Elina Lowensohn, SCHINDLER'S LIST). In this wonderful neo-film-noir, 
violence and vengeance are sure to meet in a little town they call South of 
Heaven.

Enjoy!!

RadioResearch

General
Complete name                            : G:AVIaviSOUTH_OF_HEAVENSouth of 
Heaven (2008) DVDRipSOUTH_OF_HEAVEN.Title4.avi
Format                                   : AVI
Format/Info                              : Audio Video Interleave
Format profile                           : OpenDML
File size                                : 1.22 GiB
Duration                                 : 1h 37mn
Overall bit rate                         : 1 787 Kbps
Movie name                               : SOUTH_OF_HEAVEN.Title4.DVDRip
Writing application                      : Lavf53.32.100
Original source form/Name                : SOUTH_OF_HEAVEN

Video
ID                                       : 0
Format                                   : MPEG-4 Visual
Format profile                           : Advanced Simple@L5
Format settings, BVOP                    : 2
Format settings, QPel                    : No
Format settings, GMC                     : No warppoints
Format settings, Matrix                  : Default (H.263)
Muxing mode                              : Packed bitstream
Codec ID                                 : XVID
Codec ID/Hint                            : XviD
Duration                                 : 1h 37mn
Bit rate                                 : 1 327 Kbps
Width                                    : 720 pixels
Height                                   : 404 pixels
Display aspect ratio                     : 16:9
Frame rate                               : 23.976 fps
Color space                              : YUV
Chroma subsampling                       : 4:2:0
Bit depth                                : 8 bits
Scan type                                : Progressive
Compression mode                         : Lossy
Bits/(Pixel*Frame)                       : 0.190
Stream size                              : 925 MiB (74%)
Writing library                          : XviD 64

Audio
ID                                       : 1
Format                                   : AC-3
Format/Info                              : Audio Coding 3
Mode extension                           : CM (complete main)
Format settings, Endianness              : Big
Codec ID                                 : 2000
Duration                                 : 1h 37mn
Bit rate mode                            : Constant
Bit rate                                 : 448 Kbps
Channel(s)                               : 6 channels
Channel positions                        : Front: L C R, Side: L R, LFE
Sampling rate                            : 48.0 KHz
Bit depth                                : 16 bits
Compression mode                         : Lossy
Stream size                              : 311 MiB (25%)
Alignment                                : Aligned on interleaves
Interleave, duration                     : 32 ms (0.77 video frame)




-------------------------------------------------------------------------------
Generated with Cool NFO Creator - http://fly.to/coolbeans
-------------------------------------------------------------------------------
